<svg width="547" height="415" viewBox="0 0 547 415" fill="none" xmlns="http://www.w3.org/2000/svg">
<path d="M386.114 67.8844C385.992 67.3969 385.87 66.9703 385.748 66.4828C385.627 66.0563 385.444 65.5688 385.261 65.1422C385.078 64.7156 384.834 64.2891 384.652 63.8625C384.53 63.6797 384.408 63.436 384.286 63.2531C384.042 62.8266 383.738 62.461 383.494 62.0953C382.763 61.1203 381.909 60.2672 380.995 59.5359C380.63 59.2313 380.203 58.9266 379.777 58.6828C379.594 58.561 379.35 58.4391 379.167 58.3172C378.741 58.0734 378.314 57.8297 377.827 57.6469C377.339 57.4641 376.913 57.2203 376.425 57.0984L317.072 36.9891L314.878 20.7797C313.781 12.675 306.164 7.00782 297.938 8.16564L250.955 14.5641L215.55 2.43751C214.087 1.95001 212.564 1.70626 211.102 1.64532C210.614 1.64532 210.127 1.64532 209.639 1.64532C209.395 1.64532 209.152 1.70626 208.908 1.70626C205.739 2.07189 202.753 3.41251 200.437 5.48439C198.609 7.06876 197.208 9.14064 196.355 11.5781L192.516 22.3031L128.897 30.9563C120.609 32.1141 114.759 39.6094 115.917 47.6531L134.442 184.275L115.856 236.133C115.612 236.864 115.369 237.595 115.247 238.327C115.064 239.302 115.003 240.277 115.003 241.252C115.003 241.983 115.064 242.714 115.186 243.384C115.247 243.872 115.369 244.298 115.491 244.786C115.552 245.03 115.612 245.273 115.673 245.456C115.978 246.37 116.344 247.223 116.831 248.077C116.953 248.259 117.075 248.503 117.197 248.686C117.684 249.478 118.294 250.27 118.903 250.941C119.208 251.306 119.573 251.611 119.939 251.977C120.487 252.464 121.036 252.891 121.706 253.317C121.889 253.439 122.133 253.561 122.316 253.683C122.742 253.927 123.169 254.17 123.656 254.353C124.144 254.536 124.57 254.78 125.058 254.902L144.923 261.605L147.787 282.872C148.884 290.977 156.502 296.644 164.728 295.486L221.948 287.747L285.933 309.562C286.664 309.806 287.395 309.989 288.188 310.111C288.919 310.233 289.65 310.294 290.442 310.355C291.661 310.416 292.88 310.294 294.098 310.05C294.83 309.928 295.5 309.684 296.17 309.441C296.841 309.197 297.511 308.892 298.181 308.527C299.034 308.1 299.827 307.552 300.619 306.942C302.691 305.297 304.336 303.042 305.311 300.422L314.269 275.377L333.891 272.695C342.117 271.598 347.967 264.103 346.87 255.998L339.802 204.019L340.898 200.972L385.688 75.8672C386.053 74.8922 386.297 73.9172 386.419 72.9422C386.48 72.4547 386.541 71.9672 386.541 71.4797C386.602 70.5047 386.541 69.5297 386.358 68.6156C386.236 68.3719 386.175 68.1281 386.114 67.8844ZM299.644 21.3891C300.375 21.2672 301.106 21.8156 301.167 22.5469L302.447 31.9922L279.413 24.1922L299.644 21.3891ZM129.506 45.825C129.384 45.0938 129.933 44.4235 130.664 44.3016L187.336 36.6234L174.052 73.7344L153.333 76.5375L155.161 89.8828L168.933 87.9938L144.497 156.244L129.506 45.825ZM162.961 282.323C162.23 282.445 161.498 281.897 161.437 281.166L159.487 266.663L176.916 272.573L193.43 278.18L162.961 282.323ZM333.159 257.827C333.281 258.558 332.733 259.228 332.002 259.35L319.266 261.056L327.553 237.9L329.625 232.05L333.159 257.827ZM372.647 71.4188L325.664 202.617L303.97 263.128L292.209 295.973C292.027 296.461 291.539 296.827 290.991 296.888C290.808 296.888 290.625 296.888 290.442 296.827L252.052 283.786L142.912 246.736L129.689 242.227C129.628 242.227 129.506 242.166 129.445 242.105C129.384 242.044 129.323 241.983 129.202 241.922C129.08 241.8 128.958 241.678 128.897 241.495C128.714 241.191 128.714 240.825 128.836 240.459L138.464 213.647L148.519 185.555L202.631 34.4297L207.75 20.1703L209.273 15.9047C209.334 15.8438 209.334 15.7219 209.395 15.6609C209.639 15.2953 210.066 15.0516 210.492 14.9906C210.675 14.9906 210.858 14.9906 211.041 15.0516L220.852 18.4031L249.431 28.0922L296.414 44.0578L319.083 51.736L371.855 69.6516C371.916 69.6516 372.038 69.7125 372.098 69.7735C372.342 69.8953 372.525 70.1391 372.647 70.3219C372.708 70.7485 372.769 71.1141 372.647 71.4188Z" fill="url(#paint0_linear_302_2)"/>
<path d="M211.65 66.7875L335.78 108.895L340.35 96.1594L216.22 54.0516L211.65 66.7875Z" fill="url(#paint1_linear_302_2)"/>
<path d="M198 104.934L322.13 147.042L326.7 134.306L202.57 92.1985L198 104.934Z" fill="url(#paint2_linear_302_2)"/>
<path d="M184.533 142.472L308.662 184.58L313.233 171.844L189.103 129.736L184.533 142.472Z" fill="url(#paint3_linear_302_2)"/>
<path d="M170.639 181.289L294.769 223.397L299.339 210.661L175.209 168.553L170.639 181.289Z" fill="url(#paint4_linear_302_2)"/>
<path d="M159.244 213.098L283.373 255.206L287.944 242.47L163.814 200.362L159.244 213.098Z" fill="url(#paint5_linear_302_2)"/>
<path d="M325.856 142.703C325.856 145.354 325.68 148.005 325.326 150.639C325.415 150.02 325.503 149.384 325.574 148.766C324.867 153.856 323.506 158.841 321.491 163.578C321.72 163.012 321.968 162.447 322.198 161.881C320.236 166.459 317.726 170.736 314.703 174.678C315.074 174.201 315.445 173.724 315.817 173.246C312.759 177.188 309.206 180.741 305.264 183.799C305.741 183.428 306.219 183.057 306.696 182.685C302.754 185.708 298.459 188.236 293.899 190.18C294.464 189.95 295.03 189.703 295.595 189.473C290.858 191.47 285.874 192.849 280.783 193.556C281.402 193.468 282.038 193.379 282.657 193.308C277.407 194.015 272.104 194.015 266.872 193.326C267.491 193.415 268.127 193.503 268.746 193.574C263.691 192.884 258.759 191.541 254.057 189.561C254.623 189.791 255.189 190.038 255.754 190.268C251.088 188.289 246.704 185.726 242.692 182.65C243.169 183.021 243.646 183.392 244.124 183.764C240.217 180.723 236.7 177.206 233.66 173.299C234.031 173.777 234.402 174.254 234.773 174.731C231.68 170.719 229.117 166.335 227.155 161.669C227.385 162.234 227.632 162.8 227.862 163.366C225.9 158.664 224.557 153.732 223.867 148.677C223.956 149.296 224.044 149.932 224.115 150.551C223.425 145.336 223.425 140.051 224.115 134.837C224.026 135.456 223.938 136.092 223.867 136.711C224.557 131.655 225.9 126.724 227.88 122.022C227.65 122.588 227.402 123.153 227.173 123.719C229.152 119.053 231.715 114.669 234.791 110.657C234.42 111.134 234.048 111.611 233.677 112.088C236.717 108.182 240.235 104.664 244.141 101.624C243.664 101.995 243.187 102.367 242.71 102.738C246.722 99.6445 251.106 97.0815 255.772 95.1195C255.206 95.3493 254.641 95.5968 254.075 95.8265C258.777 93.8645 263.708 92.5212 268.764 91.8141C268.145 91.9025 267.509 91.9909 266.89 92.0616C272.104 91.3722 277.389 91.3722 282.604 92.0616C281.985 91.9732 281.349 91.8848 280.73 91.8141C285.785 92.5035 290.717 93.8469 295.419 95.8089C294.853 95.5791 294.287 95.3316 293.722 95.1018C298.388 97.0815 302.772 99.6445 306.784 102.72C306.307 102.349 305.83 101.978 305.353 101.607C309.259 104.647 312.776 108.164 315.817 112.071C315.445 111.593 315.074 111.116 314.703 110.639C317.796 114.651 320.359 119.035 322.321 123.701C322.091 123.136 321.844 122.57 321.614 122.004C323.576 126.706 324.92 131.638 325.627 136.693C325.538 136.074 325.45 135.438 325.379 134.819C325.68 137.453 325.856 140.087 325.856 142.703C325.856 146.397 329.109 149.95 332.927 149.773C336.745 149.596 339.997 146.662 339.997 142.703C339.962 130.065 336.285 117.356 329.25 106.821C322.427 96.6043 312.794 88.1022 301.482 83.1884C298.388 81.845 295.26 80.6254 291.99 79.7239C288.614 78.8048 285.184 78.2391 281.72 77.8326C275.251 77.0549 268.728 77.4437 262.33 78.6103C250.098 80.8375 238.609 86.9533 229.612 95.4907C220.65 103.993 214.11 115.252 211.247 127.272C208.277 139.698 208.878 153.184 213.403 165.169C215.613 171.002 218.458 176.552 222.241 181.519C224.256 184.152 226.342 186.698 228.693 189.049C231.079 191.417 233.66 193.521 236.346 195.518C246.457 203.065 258.918 207.237 271.468 207.926C278.998 208.333 286.758 207.378 293.952 205.116C301.747 202.677 308.817 198.823 315.251 193.821C327.377 184.4 336.055 170.189 338.795 155.058C339.538 150.993 339.979 146.857 339.979 142.72C339.997 139.026 336.727 135.473 332.909 135.65C329.091 135.809 325.874 138.743 325.856 142.703Z" fill="#454545"/>
<path d="M316.912 181.784C320.996 185.867 325.079 189.95 329.179 194.051C335.684 200.556 342.189 207.06 348.676 213.547C350.196 215.067 351.893 216.517 353.254 218.161C352.883 217.683 352.512 217.206 352.14 216.729C352.176 216.8 352.229 216.87 352.264 216.941C352.034 216.375 351.787 215.81 351.557 215.244C351.628 215.386 351.663 215.545 351.681 215.704C351.592 215.085 351.504 214.449 351.433 213.83C351.433 213.918 351.433 213.989 351.433 214.078C351.522 213.459 351.61 212.823 351.681 212.204C351.663 212.363 351.628 212.522 351.557 212.663C351.787 212.098 352.034 211.532 352.264 210.967C352.229 211.037 352.176 211.108 352.14 211.179C352.512 210.701 352.883 210.224 353.254 209.747C352.087 211.143 350.656 212.381 349.365 213.671C347.35 215.686 345.317 217.719 343.302 219.734C342.808 220.229 342.313 220.777 341.765 221.236C342.242 220.865 342.719 220.494 343.196 220.123C343.126 220.158 343.055 220.211 342.984 220.246C343.55 220.017 344.116 219.769 344.681 219.539C344.54 219.61 344.381 219.645 344.222 219.663C344.84 219.575 345.477 219.486 346.095 219.416C346.007 219.416 345.936 219.416 345.848 219.416C346.466 219.504 347.103 219.592 347.721 219.663C347.562 219.645 347.403 219.61 347.262 219.539C347.827 219.769 348.393 220.017 348.959 220.246C348.888 220.211 348.817 220.158 348.747 220.123C349.224 220.494 349.701 220.865 350.178 221.236C348.853 220.123 347.686 218.762 346.449 217.542C343.585 214.679 340.704 211.797 337.841 208.934C331.336 202.429 324.814 195.907 318.309 189.402C316.806 187.9 315.304 186.397 313.802 184.895C313.324 188.589 312.847 192.301 312.37 195.995C315.375 193.821 318.256 191.47 320.89 188.854C323.523 186.238 325.856 183.339 328.031 180.334C329.056 178.938 329.179 176.481 328.738 174.89C328.278 173.246 327.023 171.479 325.485 170.666C323.841 169.8 321.862 169.358 320.041 169.959C318.185 170.56 316.948 171.638 315.817 173.211C315.463 173.706 315.092 174.201 314.721 174.678C315.092 174.201 315.463 173.724 315.834 173.246C312.776 177.188 309.224 180.741 305.282 183.799C305.759 183.428 306.236 183.057 306.714 182.685C306.236 183.057 305.741 183.428 305.246 183.781C303.391 185.125 302.189 186.627 301.87 188.943C301.57 191.152 302.224 193.291 303.815 194.882C305.459 196.525 307.12 198.187 308.764 199.831C312.511 203.578 316.241 207.308 319.988 211.055C324 215.067 328.013 219.08 332.043 223.11C334.518 225.584 336.992 228.059 339.467 230.534C339.644 230.71 339.803 230.887 339.997 231.064C343.444 234.316 348.605 234.299 352.052 231.064C353.413 229.774 354.721 228.395 356.047 227.069C357.973 225.143 359.882 223.234 361.809 221.307C362.251 220.865 362.693 220.441 363.117 219.999C366.352 216.552 366.369 211.408 363.117 207.962C361.332 206.07 359.44 204.285 357.602 202.447C353.784 198.629 349.984 194.829 346.166 191.011C342.189 187.034 338.229 183.074 334.252 179.097C331.937 176.782 329.604 174.448 327.288 172.133C327.182 172.027 327.058 171.903 326.952 171.797C324.336 169.181 319.529 168.987 316.948 171.797C314.332 174.608 314.12 178.991 316.912 181.784Z" fill="#454545"/>
<path d="M255.613 158.982C254.694 158.063 253.845 157.091 253.05 156.066C253.421 156.543 253.792 157.02 254.163 157.497C252.59 155.429 251.282 153.184 250.257 150.798C250.487 151.364 250.734 151.93 250.964 152.495C249.957 150.074 249.267 147.546 248.896 144.948C248.984 145.566 249.073 146.203 249.144 146.821C248.772 144.081 248.772 141.324 249.144 138.567C249.055 139.185 248.967 139.822 248.896 140.44C249.267 137.842 249.957 135.314 250.964 132.893C250.734 133.458 250.487 134.024 250.257 134.59C251.282 132.203 252.59 129.959 254.163 127.89C253.792 128.368 253.421 128.845 253.05 129.322C253.845 128.297 254.694 127.325 255.613 126.406C258.229 123.772 258.441 119 255.613 116.401C252.802 113.821 248.401 113.591 245.608 116.401C240.429 121.633 236.611 128.527 235.392 135.827C234.791 139.486 234.526 143.109 235.003 146.804C235.268 148.889 235.586 150.957 236.17 152.972C236.753 154.97 237.566 156.914 238.432 158.805C240.164 162.553 242.71 166.017 245.608 168.934C248.224 171.567 253.032 171.744 255.613 168.934C258.211 166.159 258.388 161.793 255.613 158.982Z" fill="#454545"/>
<path d="M42.926 317.1H8.89C8.128 317.1 7.62 317.608 7.62 318.37V404.73C7.62 405.492 8.128 406 8.89 406H28.194C28.956 406 29.464 405.492 29.464 404.73V380.727C29.464 380.092 29.845 379.711 30.48 379.838C32.131 379.965 33.655 379.965 35.179 379.965C52.705 382.124 55.499 395.332 55.753 404.73C55.753 405.619 56.261 406 57.023 406H75.057C75.819 406 76.327 405.492 76.327 404.73C76.2 393.935 74.168 383.14 62.357 374.631C61.722 374.123 61.722 373.615 62.357 373.234C70.612 367.646 75.184 359.01 75.184 347.834C75.184 329.038 64.135 317.1 42.926 317.1ZM29.464 359.899V336.023C29.464 335.388 29.845 335.007 30.48 335.007H41.148C57.912 335.007 57.912 360.915 40.005 360.915H30.48C29.845 360.915 29.464 360.534 29.464 359.899ZM113.707 407.524C130.09 407.524 139.996 396.602 142.282 387.331C142.409 386.823 141.901 386.569 141.139 386.315L127.042 382.632C126.28 382.378 125.899 382.632 125.518 383.394C122.851 387.585 119.549 390.506 113.326 390.506C110.913 390.506 108.627 389.998 106.595 388.982C105.833 388.728 105.833 388.093 106.595 387.585L141.139 367.138C141.647 366.757 142.028 366.376 141.901 365.614C140.758 351.898 127.804 340.468 112.31 340.468C94.0217 340.468 80.1787 354.946 80.1787 373.615C80.1787 392.411 95.2917 407.524 113.707 407.524ZM98.0857 375.139C98.0857 365.868 104.69 358.248 113.326 358.248C117.009 358.248 119.803 359.899 121.708 361.931C122.089 362.439 121.962 362.947 121.454 363.328L99.3557 376.155C98.7207 376.536 98.0857 376.282 98.0857 375.52V375.139ZM180.641 407.524C194.992 407.524 205.152 396.856 207.311 387.839C207.438 387.331 207.057 386.95 206.295 386.696L191.817 382.505C191.182 382.251 190.547 382.505 190.166 383.14C188.769 385.426 185.34 388.982 179.752 388.982C172.894 388.982 167.433 382.632 167.433 374.758C167.433 366.757 171.878 360.026 179.752 360.026C185.594 360.026 188.642 363.836 190.039 365.868C190.42 366.503 191.182 366.63 191.817 366.249L206.295 358.502C206.93 358.121 207.184 357.486 206.803 356.724C201.469 347.58 192.833 341.357 180.641 341.357C162.353 341.357 148.764 356.089 148.764 374.377C148.764 392.792 162.353 407.524 180.641 407.524ZM245.756 407.651C263.536 407.651 277.76 392.665 277.76 374.25C277.76 355.835 263.536 340.849 245.756 340.849C228.103 340.849 213.752 355.835 213.752 374.25C213.752 392.665 228.103 407.651 245.756 407.651ZM231.913 374.377C231.913 366.884 238.009 360.026 245.756 360.026C253.503 360.026 259.599 366.757 259.599 374.377C259.599 382.124 253.503 388.855 245.756 388.855C238.136 388.855 231.913 382.124 231.913 374.377ZM286.643 406H304.677C305.439 406 305.947 405.492 305.947 404.73V380.346C305.947 371.329 309.376 362.058 318.52 362.058C320.044 362.058 321.568 362.312 322.965 363.074C323.727 363.455 324.235 363.455 324.616 362.566L331.982 345.675C332.236 344.913 332.109 344.278 331.347 344.024C328.68 343.008 325.251 342.5 322.584 342.5C316.742 342.5 311.408 344.913 307.217 348.723C306.455 349.358 305.947 349.104 305.947 348.215V343.77C305.947 343.008 305.439 342.5 304.677 342.5H286.643C285.881 342.5 285.373 343.008 285.373 343.77V404.73C285.373 405.492 285.881 406 286.643 406ZM360.315 407.524C367.427 407.524 373.65 405.238 378.603 401.301C379.238 400.793 379.746 401.174 379.746 401.936V404.73C379.746 405.492 380.254 406 381.016 406H399.05C399.812 406 400.32 405.492 400.32 404.73V318.497C400.32 317.735 399.812 317.227 399.05 317.227H381.016C380.254 317.227 379.746 317.735 379.746 318.497V347.453C379.746 348.342 379.238 348.596 378.476 348.088C373.65 344.024 367.427 341.611 360.315 341.611C343.551 341.611 329.962 357.105 329.962 375.012C329.962 392.919 343.551 407.524 360.315 407.524ZM349.266 375.266C349.266 366.884 355.87 359.645 364.379 359.645C373.015 359.645 379.746 366.884 379.746 375.266C379.746 383.648 373.015 391.014 364.379 391.014C355.997 391.014 349.266 383.648 349.266 375.266ZM413.053 318.37V376.028C413.053 397.618 429.563 407.524 447.978 407.524C466.139 407.524 482.649 396.348 482.649 375.52V318.37C482.649 317.608 482.141 317.1 481.379 317.1H462.075C461.313 317.1 460.805 317.608 460.805 318.37V370.313C460.805 392.792 434.897 392.792 434.897 370.313V318.37C434.897 317.608 434.389 317.1 433.627 317.1H414.323C413.561 317.1 413.053 317.608 413.053 318.37ZM497.885 318.37V404.73C497.885 405.492 498.393 406 499.155 406H518.459C519.221 406 519.729 405.492 519.729 404.73V318.37C519.729 317.608 519.221 317.1 518.459 317.1H499.155C498.393 317.1 497.885 317.608 497.885 318.37Z" fill="#161616"/>
<defs>
<linearGradient id="paint0_linear_302_2" x1="250.783" y1="1.64532" x2="250.783" y2="310.37" gradientUnits="userSpaceOnUse">
<stop stop-color="#C7E9E9"/>
<stop offset="1" stop-color="#C3E9E9"/>
</linearGradient>
<linearGradient id="paint1_linear_302_2" x1="276" y1="54.0516" x2="276" y2="108.895" gradientUnits="userSpaceOnUse">
<stop stop-color="#C7E9E9"/>
<stop offset="1" stop-color="#C3E9E9"/>
</linearGradient>
<linearGradient id="paint2_linear_302_2" x1="262.35" y1="92.1985" x2="262.35" y2="147.042" gradientUnits="userSpaceOnUse">
<stop stop-color="#C7E9E9"/>
<stop offset="1" stop-color="#C3E9E9"/>
</linearGradient>
<linearGradient id="paint3_linear_302_2" x1="248.883" y1="129.736" x2="248.883" y2="184.58" gradientUnits="userSpaceOnUse">
<stop stop-color="#C7E9E9"/>
<stop offset="1" stop-color="#C3E9E9"/>
</linearGradient>
<linearGradient id="paint4_linear_302_2" x1="234.989" y1="168.553" x2="234.989" y2="223.397" gradientUnits="userSpaceOnUse">
<stop stop-color="#C7E9E9"/>
<stop offset="1" stop-color="#C3E9E9"/>
</linearGradient>
<linearGradient id="paint5_linear_302_2" x1="223.594" y1="200.362" x2="223.594" y2="255.206" gradientUnits="userSpaceOnUse">
<stop stop-color="#C7E9E9"/>
<stop offset="1" stop-color="#C3E9E9"/>
</linearGradient>
</defs>
</svg>
